# xmcd CD Database Entry
#
# Track frame offsets:
# 150
# 16932
# 46419
# 65134
# 77916
# 96083
# 116825
# 132229
# 150509
# 165403
#
# Disc length: 2376 seconds
#
# Revision: 2
# Processed by: cddbd v1.4b41PL3 Copyright (c) Steve Scherf et al.
# Submitted via: tcd 2.0b
#
DISCID=7c09460a
DTITLE=Neil Young - Silver and Gold
DYEAR=1900
DGENRE=
TTITLE0=Without Rings
TTITLE1=Razor Love
TTITLE2=Distant Camera
TTITLE3=Red Sun
TTITLE4=Horseshoe Man
TTITLE5=The Great Divide
TTITLE6=Buffalo Springfield Again
TTITLE7=Daddy Went Walkin'
TTITLE8=Silver and Gold
TTITLE9=Good To See You
EXTD=
EXTT0=
EXTT1=
EXTT2=
EXTT3=
EXTT4=
EXTT5=
EXTT6=
EXTT7=
EXTT8=
EXTT9=
PLAYORDER=
